# xmcd CD database file
#
# Track frame offsets:
#	150
#	14625
#	32822
#	56209
#	72777
#	90622
#	110650
#	137277
#	160331
#	191336
#	213817
#	230013
#	252917
#
# Disc length: 3556 seconds
#
# Revision: 0
# Processed by: cddbd v1.5.1PL2 Copyright (c) Steve Scherf et al.
# Submitted via: CDex 1.51
#
DISCID=b20de20d
DTITLE=sara gazarek - Yours
DYEAR=2006
DGENRE=Jazz
TTITLE0=my shining hour
TTITLE1=yours
TTITLE2=amazing
TTITLE3=ev'ry time we say goodbye
TTITLE4=cheek to cheek
TTITLE5=you got by
TTITLE6=blackbird/bye bye blackbird
TTITLE7=the circle game
TTITLE8=all or nothing at all
TTITLE9=too young to go steady
TTITLE10=you are my sunshine
TTITLE11=ben
TTITLE12=never will i marry
EXTD=YEAR: 2006
EXTT0=
EXTT1=
EXTT2=
EXTT3=
EXTT4=
EXTT5=
EXTT6=
EXTT7=
EXTT8=
EXTT9=
EXTT10=
EXTT11=
EXTT12=
PLAYORDER=
